<?xml version="1.0" encoding="UTF-8" standalone="no"?>
<!DOCTYPE svg PUBLIC "-//W3C//DTD SVG 1.1//EN" "http://www.w3.org/Graphics/SVG/1.1/DTD/svg11.dtd">
<svg width="100%" height="100%" viewBox="0 0 821 170" version="1.1" xmlns="http://www.w3.org/2000/svg" xmlns:xlink="http://www.w3.org/1999/xlink" xml:space="preserve" xmlns:serif="http://www.serif.com/" style="fill-rule:evenodd;clip-rule:evenodd;stroke-linejoin:round;stroke-miterlimit:2;">
    <g>
        <path d="M85,170C38.1,170 0,131.9 0,85C0,58 12.4,33.2 34.1,17L46.9,23.4L46.9,72.4C46.9,93.4 64,110.5 85,110.5C106,110.5 123.1,93.4 123.1,72.4L123.1,23.4L135.9,17C157.6,33.2 170,58 170,85C170,131.9 131.9,170 85,170ZM30.9,42.2C21.3,54.2 16,69.1 16,85C16,123 47,154 85,154C123,154 154,123 154,85C154,69.1 148.7,54.2 139.1,42.2L139.1,72.4C139.1,102.3 114.8,126.5 85,126.5C55.1,126.5 30.9,102.2 30.9,72.4L30.9,42.2Z" style="fill:rgb(1,83,255);fill-rule:nonzero;"/>
    </g>
    <g>
        <path d="M85,96.9C70.1,96.9 58,84.8 58,69.9L58,4.1L64,2.6C77.6,-0.9 92.2,-0.9 105.8,2.6L111.8,4.1L111.8,69.9C112,84.8 99.9,96.9 85,96.9ZM74.1,16.9L74.1,69.9C74.1,75.9 79,80.9 85.1,80.9C91.2,80.9 96.1,76 96.1,69.9L96.1,16.9C88.8,15.7 81.3,15.7 74.1,16.9Z" style="fill:rgb(1,83,255);fill-rule:nonzero;"/>
    </g>
    <g>
        <path d="M227.5,92.7L218.5,92.7L218.5,126.8L201.1,126.8L201.1,38.2L235.7,38.2C252.9,38.2 264,50.1 264,65.5C264,77.9 256.8,87.3 245.1,90.6L264.1,126.8L244.8,126.8L227.5,92.7ZM232.5,77.9C241.3,77.9 246.4,72.9 246.4,65.7C246.4,58.2 241.3,53.3 232.5,53.3L218.5,53.3L218.5,77.9L232.5,77.9Z" style="fill:rgb(58,58,58);fill-rule:nonzero;"/>
        <path d="M325.1,109.2C322,119.8 312.2,128.7 297.1,128.7C280.2,128.7 265.3,116.6 265.3,95.8C265.3,76.2 279.8,63.4 295.5,63.4C314.5,63.4 325.9,75.5 325.9,95.3C325.9,97.7 325.7,100.2 325.7,100.4L281.7,100.4C282.1,108.5 288.9,114.4 297.2,114.4C305,114.4 309.2,110.5 311.2,105L325.1,109.2ZM309.6,89.1C309.3,83 305.3,77 295.8,77C287.2,77 282.4,83.5 282,89.1L309.6,89.1Z" style="fill:rgb(58,58,58);fill-rule:nonzero;"/>
        <path d="M347.5,91.5L362.6,89.3C366.1,88.8 367.2,87.1 367.2,84.9C367.2,80.5 363.8,76.9 356.8,76.9C349.6,76.9 345.6,81.5 345,86.9L330.2,83.8C331.2,74.2 340.1,63.5 356.6,63.5C376.1,63.5 383.4,74.5 383.4,86.9L383.4,117.1C383.4,120.3 383.8,124.7 384.2,126.8L369,126.8C368.6,125.2 368.4,121.8 368.4,119.4C365.3,124.3 359.4,128.5 350.3,128.5C337.2,128.5 329.2,119.6 329.2,110C329.1,99.1 337.2,93 347.5,91.5ZM367.2,102L367.2,99.2L353.3,101.3C349.1,101.9 345.7,104.3 345.7,109.1C345.7,112.7 348.3,116.2 353.7,116.2C360.7,116.2 367.2,112.9 367.2,102Z" style="fill:rgb(58,58,58);fill-rule:nonzero;"/>
        <path d="M405.7,96.1C405.7,107.2 412.9,113.5 421.5,113.5C430.1,113.5 434.3,107.9 435.6,103.1L450.2,108C447.4,118.2 437.8,128.7 421.4,128.7C403.3,128.7 389,115 389,96.1C389,77.1 403,63.5 420.9,63.5C437.7,63.5 447.1,73.9 449.8,84.3L434.9,89.3C433.4,84.2 429.5,78.9 421.3,78.9C412.8,78.9 405.7,85 405.7,96.1Z" style="fill:rgb(58,58,58);fill-rule:nonzero;"/>
        <path d="M476.6,65.4L489.1,65.4L489.1,80.2L476.7,80.2L476.7,106C476.7,111.4 479.2,113.1 483.9,113.1C485.9,113.1 488.1,112.9 489,112.6L489,126.3C487.5,126.9 484.5,127.8 479.6,127.8C467.6,127.8 460.1,120.7 460.1,108.8L460.1,80.1L449,80.1L449,65.4L452.1,65.4C458.6,65.4 461.6,61.1 461.6,55.6L461.6,47L476.6,47L476.6,65.4Z" style="fill:rgb(58,58,58);fill-rule:nonzero;"/>
        <path d="M521.6,95.5L521.6,38.2L538.8,38.2L538.8,94.2C538.8,105.8 545.3,112 555.6,112C566.1,112 572.5,105.9 572.5,94.2L572.5,38.2L589.7,38.2L589.7,95.5C589.7,117.3 574.6,128.9 555.6,128.9C536.7,128.9 521.6,117.2 521.6,95.5Z" style="fill:rgb(58,58,58);fill-rule:nonzero;"/>
        <path d="M617.6,126.9L601,126.9L601,65.4L617.1,65.4L617.1,73C620.9,66.6 628.2,63.7 634.9,63.7C650.1,63.7 657.1,74.6 657.1,88.1L657.1,126.8L640.5,126.8L640.5,91C640.5,84.1 637.1,78.8 629.1,78.8C621.9,78.8 617.6,84.4 617.6,91.6L617.6,126.9Z" style="fill:rgb(58,58,58);fill-rule:nonzero;"/>
        <path d="M676,34.9C681.8,34.9 686.2,39.5 686.2,45.3C686.2,50.8 681.7,55.4 676,55.4C670.4,55.4 665.8,50.8 665.8,45.3C665.7,39.5 670.3,34.9 676,34.9ZM667.7,126.9L667.7,65.4L684.3,65.4L684.3,126.9L667.7,126.9Z" style="fill:rgb(58,58,58);fill-rule:nonzero;"/>
        <path d="M755.7,96.1C755.7,115 741.8,128.7 723.5,128.7C705.2,128.7 691.3,115 691.3,96.1C691.3,77.1 705.2,63.5 723.5,63.5C741.8,63.5 755.7,77.1 755.7,96.1ZM739.1,96.1C739.1,84.5 731.6,78.6 723.5,78.6C715.4,78.6 707.9,84.5 707.9,96.1C707.9,107.6 715.4,113.6 723.5,113.6C731.6,113.6 739.1,107.7 739.1,96.1Z" style="fill:rgb(58,58,58);fill-rule:nonzero;"/>
        <path d="M779.2,126.9L762.6,126.9L762.6,65.4L778.7,65.4L778.7,73C782.5,66.6 789.8,63.7 796.5,63.7C811.7,63.7 818.7,74.6 818.7,88.1L818.7,126.8L802.1,126.8L802.1,91C802.1,84.1 798.7,78.8 790.7,78.8C783.5,78.8 779.2,84.4 779.2,91.6L779.2,126.9Z" style="fill:rgb(58,58,58);fill-rule:nonzero;"/>
    </g>
</svg>
